<svg width="20" height="19" viewBox="0 0 20 19" fill="none" xmlns="http://www.w3.org/2000/svg">
<path d="M10 18.35L8.55 17.05C6.86667 15.5333 5.475 14.225 4.375 13.125C3.275 12.025 2.4 11.0373 1.75 10.162C1.1 9.28667 0.646 8.48267 0.388 7.75C0.13 7.01733 0.000666667 6.26733 0 5.5C0 3.93333 0.525 2.625 1.575 1.575C2.625 0.525 3.93333 0 5.5 0C6.36667 0 7.19167 0.183333 7.975 0.55C8.75833 0.916667 9.43333 1.43333 10 2.1C10.5667 1.43333 11.2417 0.916667 12.025 0.55C12.8083 0.183333 13.6333 0 14.5 0C16.0667 0 17.375 0.525 18.425 1.575C19.475 2.625 20 3.93333 20 5.5C20 6.26667 19.871 7.01667 19.613 7.75C19.355 8.48333 18.9007 9.28733 18.25 10.162C17.5993 11.0367 16.7243 12.0243 15.625 13.125C14.5257 14.2257 13.134 15.534 11.45 17.05L10 18.35ZM10 15.65C11.6 14.2167 12.9167 12.9877 13.95 11.963C14.9833 10.9383 15.8 10.0467 16.4 9.288C17 8.52933 17.4167 7.854 17.65 7.262C17.8833 6.67 18 6.08267 18 5.5C18 4.5 17.6667 3.66667 17 3C16.3333 2.33333 15.5 2 14.5 2C13.7167 2 12.9917 2.22067 12.325 2.662C11.6583 3.10333 11.2 3.666 10.95 4.35H9.05C8.8 3.66667 8.34167 3.10433 7.675 2.663C7.00833 2.22167 6.28333 2.00067 5.5 2C4.5 2 3.66667 2.33333 3 3C2.33333 3.66667 2 4.5 2 5.5C2 6.08333 2.11667 6.671 2.35 7.263C2.58333 7.855 3 8.53 3.6 9.288C4.2 10.046 5.01667 10.9377 6.05 11.963C7.08333 12.9883 8.4 14.2173 10 15.65Z" fill="black"/>
</svg>
