<svg width="20" height="19" viewBox="0 0 20 19" fill="none" xmlns="http://www.w3.org/2000/svg">
<path d="M10 18.9984L8.55 17.6984C6.86667 16.1818 5.475 14.8734 4.375 13.7734C3.275 12.6734 2.4 11.6858 1.75 10.8104C1.1 9.9351 0.646 9.1311 0.388 8.39844C0.13 7.66577 0.000666667 6.91577 0 6.14844C0 4.58177 0.525 3.27344 1.575 2.22344C2.625 1.17344 3.93333 0.648437 5.5 0.648438C6.36667 0.648438 7.19167 0.831771 7.975 1.19844C8.75833 1.5651 9.43333 2.08177 10 2.74844C10.5667 2.08177 11.2417 1.5651 12.025 1.19844C12.8083 0.831771 13.6333 0.648438 14.5 0.648438C16.0667 0.648438 17.375 1.17344 18.425 2.22344C19.475 3.27344 20 4.58177 20 6.14844C20 6.9151 19.871 7.6651 19.613 8.39844C19.355 9.13177 18.9007 9.93577 18.25 10.8104C17.5993 11.6851 16.7243 12.6728 15.625 13.7734C14.5257 14.8741 13.134 16.1824 11.45 17.6984L10 18.9984Z" fill="#FF0000"/>
</svg>
